<svg
    xmlns="http://www.w3.org/2000/svg"
    viewBox="0 0 256 256"
    id="vector">
    <path
        id="path"
        d="M 0 0 L 256 0 L 256 256 L 0 256 Z"
        fill="#ffffff"
        fill-opacity="0"/>
    <path
        id="path_1"
        d="M 36.985 195.402"
        fill="#ffffff"
        stroke="#000000"/>
    <path
        id="path_2"
        d="M 125.427 3.503 C 124.553 5.021 121.204 10.86 117.988 16.485 C 114.755 22.11 109.377 31.496 106.029 37.335 L 99.926 47.975 L 97.023 48.833 C 82.623 53.155 69.195 60.495 57.583 70.376 C 53.261 74.038 47.554 79.943 43.809 84.612 C 29.639 102.229 21.557 123.805 20.897 145.81 C 20.567 156.598 21.639 166.38 24.229 176.079 L 24.938 178.751 L 19.956 187.428 C 15.453 195.296 10.372 204.171 2.273 218.274 C 0.689 221.029 -0.581 223.305 -0.548 223.338 C -0.515 223.371 11.263 223.453 25.647 223.519 L 51.792 223.634 L 53.491 225.218 C 61.656 232.806 70.003 238.662 79.257 243.313 C 92.123 249.746 104.709 253.326 119.39 254.711 C 123.2 255.057 133.691 255.107 137.485 254.793 C 162.789 252.632 185.025 242.966 203.417 226.091 L 205.528 224.161 L 231.013 224.243 C 245.034 224.292 256.531 224.325 256.564 224.309 C 256.613 224.26 256.102 223.352 252.259 216.738 C 250.939 214.462 249.29 211.608 248.581 210.387 C 247.872 209.166 243.946 202.37 239.838 195.294 C 235.747 188.217 232.3 182.263 232.184 182.065 C 232.019 181.752 232.102 181.339 232.662 179.508 C 234.015 175.137 235.219 169.71 235.945 164.86 C 237.974 151.301 237.232 137.082 233.817 123.869 C 227.07 97.757 210.311 75.158 186.888 60.576 C 177.915 54.984 167.143 50.382 156.949 47.759 L 153.914 46.967 L 153.139 45.664 C 152.413 44.427 145.914 33.177 133.196 11.205 C 129.996 5.663 127.291 1.044 127.192 0.945 C 127.044 0.78 126.631 1.374 125.427 3.502 Z M 135.819 34.465 C 139.019 39.991 142.648 46.276 143.885 48.404 C 145.106 50.532 146.838 53.501 147.712 55.002 C 148.586 56.503 151.407 61.353 153.98 65.806 C 156.553 70.243 159.819 75.885 161.238 78.342 C 162.657 80.783 164.966 84.759 166.352 87.167 C 167.738 89.575 170.047 93.534 171.466 95.992 C 172.901 98.433 175.029 102.112 176.2 104.157 C 177.388 106.202 182.947 115.803 188.572 125.519 C 194.197 135.218 201.933 148.58 205.777 155.211 C 216.334 173.422 222.124 183.418 225.077 188.532 C 226.562 191.072 230.471 197.819 233.787 203.543 C 237.103 209.25 239.89 214.067 239.989 214.216 C 240.071 214.364 240.121 214.546 240.071 214.595 C 240.022 214.644 221.976 214.611 199.987 214.513 C 177.999 214.431 139.779 214.282 115.052 214.183 C 30.48 213.87 16.492 213.82 16.426 213.754 C 16.36 213.688 17.515 211.676 25.07 198.512 C 27.495 194.289 33.285 184.194 37.936 176.078 C 42.588 167.962 47.965 158.56 49.895 155.211 C 51.825 151.846 55.586 145.281 58.275 140.613 C 66.803 125.718 69.508 121.017 72.412 115.952 C 75.48 110.591 83.216 97.131 91.844 82.054 C 97.403 72.355 101.428 65.328 106.475 56.569 C 108.042 53.847 110.846 48.948 112.694 45.682 C 116.999 38.127 126.88 20.889 127.21 20.378 C 127.457 19.999 127.474 20.048 128.728 22.192 C 129.437 23.413 132.621 28.922 135.821 34.465 Z M 162.261 58.416 C 163.201 58.746 163.993 59.076 164.01 59.158 C 164.043 59.224 164.142 59.257 164.224 59.207 C 164.306 59.141 164.603 59.223 164.9 59.355 C 165.89 59.8 166.764 60.163 166.978 60.213 C 167.869 60.394 173.477 63.067 173.362 63.248 C 173.313 63.33 173.362 63.446 173.461 63.512 C 173.593 63.578 173.609 63.561 173.543 63.446 C 173.477 63.331 173.51 63.248 173.625 63.248 C 173.839 63.248 178.26 65.524 179.2 66.135 C 179.53 66.333 180.14 66.696 180.586 66.943 C 181.378 67.405 181.592 67.603 181.081 67.438 C 180.834 67.356 180.834 67.372 181.032 67.504 C 181.164 67.603 181.312 67.652 181.395 67.603 C 181.461 67.554 181.84 67.718 182.22 67.966 C 184.282 69.236 184.991 69.747 184.991 69.896 C 184.991 69.995 185.04 70.028 185.09 69.962 C 185.255 69.797 187.152 71.166 187.036 71.364 C 186.97 71.479 187.003 71.496 187.118 71.43 C 187.349 71.282 188.157 71.892 187.992 72.073 C 187.926 72.155 187.976 72.155 188.074 72.089 C 188.206 72.023 188.453 72.138 188.684 72.369 C 188.915 72.6 189.113 72.748 189.146 72.715 C 189.228 72.649 193.814 76.344 195.266 77.647 C 196.8 79.016 196.866 79.082 196.866 79.28 C 196.866 79.379 196.915 79.412 196.981 79.346 C 197.146 79.198 198.68 80.748 198.565 80.946 C 198.516 81.045 198.549 81.061 198.631 81.012 C 198.845 80.88 199.39 81.457 199.225 81.622 C 199.143 81.688 199.176 81.721 199.274 81.688 C 199.554 81.606 200.693 82.694 200.561 82.909 C 200.495 83.008 200.512 83.041 200.61 82.991 C 200.841 82.843 203.2 85.267 203.051 85.498 C 203.002 85.597 203.002 85.679 203.084 85.663 C 203.463 85.597 203.661 85.696 203.562 85.927 C 203.513 86.059 203.546 86.158 203.628 86.125 C 203.859 86.076 204.948 87.346 204.832 87.544 C 204.783 87.643 204.816 87.659 204.914 87.61 C 205.079 87.495 206.481 89.095 207.801 90.876 C 208.131 91.321 208.494 91.816 208.609 91.948 C 209.434 92.888 209.615 93.152 209.401 93.037 C 209.269 92.971 209.319 93.053 209.516 93.218 C 209.912 93.564 212.205 96.814 212.205 97.045 C 212.205 97.127 212.254 97.226 212.337 97.259 C 212.551 97.341 215.57 102.175 215.422 102.175 C 215.373 102.175 215.504 102.422 215.719 102.703 C 216.395 103.61 218.82 108.443 218.705 108.658 C 218.639 108.773 218.656 108.806 218.721 108.724 C 218.853 108.609 219.249 109.367 220.453 112.073 C 221.162 113.706 222.894 118.16 222.977 118.605 C 223.01 118.786 223.092 119.034 223.142 119.166 C 223.505 119.991 224.643 123.785 225.204 126.028 C 226.458 130.96 227.299 135.711 227.827 140.94 C 228.19 144.536 228.223 154.021 227.909 157.518 C 227.563 161.262 226.342 169.246 226.078 169.477 C 226.029 169.526 225.979 169.691 225.963 169.84 C 225.914 170.896 225.93 170.879 225.6 170.45 C 224.907 169.543 223.736 167.332 223.851 167.151 C 223.917 167.036 223.9 167.003 223.802 167.052 C 223.571 167.2 222.878 166.046 223.027 165.815 C 223.093 165.716 223.06 165.683 222.978 165.733 C 222.879 165.799 222.747 165.733 222.698 165.585 C 222.649 165.453 222.286 164.793 221.906 164.15 C 221.527 163.49 221.197 162.929 221.197 162.88 C 221.197 162.831 221.032 162.55 220.818 162.27 C 220.604 161.957 220.488 161.643 220.554 161.528 C 220.62 161.413 220.603 161.363 220.538 161.446 C 220.34 161.611 218.954 159.236 219.07 158.922 C 219.119 158.79 219.103 158.741 219.037 158.807 C 218.889 158.955 218.509 158.345 215.425 152.968 C 213.99 150.477 212.357 147.64 211.78 146.65 C 211.203 145.677 210.774 144.786 210.84 144.671 C 210.889 144.572 210.873 144.539 210.807 144.622 C 210.626 144.77 209.223 142.412 209.322 142.131 C 209.371 142.016 209.338 141.966 209.24 142.016 C 209.158 142.065 209.009 141.934 208.894 141.736 C 208.795 141.522 208.267 140.614 207.739 139.707 C 207.195 138.8 206.766 138.008 206.766 137.926 C 206.766 137.86 206.552 137.497 206.271 137.134 C 206.007 136.755 205.826 136.392 205.875 136.309 C 205.924 136.227 205.891 136.161 205.793 136.161 C 205.711 136.161 205.529 135.963 205.397 135.699 C 205.282 135.452 204.737 134.511 204.209 133.604 C 203.681 132.697 203.12 131.724 202.972 131.46 C 202.824 131.18 202.23 130.19 201.669 129.266 C 200.613 127.468 200.547 127.32 200.861 127.517 C 200.976 127.583 200.993 127.566 200.927 127.435 C 200.861 127.336 200.746 127.287 200.696 127.32 C 200.597 127.386 199.574 125.703 197.694 122.404 C 197.381 121.843 196.902 121.018 196.638 120.557 C 196.374 120.112 195.599 118.776 194.922 117.604 C 194.246 116.416 193.355 114.866 192.926 114.156 C 192.514 113.43 192.167 112.803 192.167 112.754 C 192.151 112.705 191.92 112.292 191.623 111.847 C 191.343 111.402 191.145 110.956 191.211 110.857 C 191.26 110.758 191.244 110.725 191.178 110.808 C 190.997 110.956 190.238 109.62 190.386 109.389 C 190.435 109.307 190.419 109.274 190.32 109.323 C 190.238 109.389 190.056 109.224 189.924 108.977 C 189.809 108.73 189.528 108.251 189.33 107.905 C 189.116 107.575 188.984 107.295 189.033 107.295 C 189.082 107.295 189 107.163 188.852 106.998 C 188.605 106.734 183.244 97.563 183.046 97.068 C 182.997 96.936 182.683 96.375 182.337 95.831 C 180.506 92.829 179.384 90.783 179.467 90.651 C 179.516 90.552 179.467 90.437 179.335 90.354 C 178.89 90.074 176.861 86.544 177.009 86.313 C 177.075 86.214 177.058 86.181 176.96 86.231 C 176.762 86.363 175.723 84.565 175.871 84.334 C 175.92 84.235 175.887 84.202 175.805 84.252 C 175.706 84.318 175.525 84.153 175.409 83.906 C 175.277 83.659 174.634 82.537 173.957 81.399 C 173.297 80.261 172.34 78.644 171.846 77.803 C 171.351 76.962 171.005 76.203 171.071 76.087 C 171.137 75.988 171.12 75.955 171.005 76.021 C 170.824 76.12 170.543 75.526 170.626 75.213 C 170.642 75.131 170.61 75.098 170.544 75.18 C 170.478 75.246 170.132 74.801 169.785 74.19 C 169.439 73.563 169.076 72.953 168.993 72.821 C 168.762 72.475 168.003 71.04 167.97 70.891 C 167.954 70.809 167.805 70.611 167.64 70.429 C 167.475 70.264 167.376 70.017 167.426 69.885 C 167.459 69.77 167.442 69.704 167.377 69.753 C 167.179 69.868 164.837 65.745 164.969 65.53 C 165.035 65.415 165.018 65.398 164.887 65.464 C 164.788 65.53 164.656 65.464 164.59 65.283 C 164.524 65.118 164.31 64.722 164.112 64.392 C 163.898 64.062 163.782 63.732 163.832 63.683 C 163.898 63.634 163.848 63.584 163.733 63.584 C 163.618 63.584 163.568 63.518 163.618 63.436 C 163.684 63.354 163.651 63.255 163.569 63.222 C 163.289 63.123 161.227 59.461 161.342 59.263 C 161.408 59.164 161.391 59.131 161.293 59.181 C 161.211 59.247 161.029 59.082 160.897 58.835 C 160.782 58.588 160.567 58.258 160.435 58.093 C 160.105 57.697 160.336 57.73 162.266 58.423 Z M 93.277 59.406 C 93.277 59.488 93.129 59.719 92.947 59.95 C 92.766 60.181 92.617 60.461 92.617 60.577 C 92.617 60.692 92.518 60.824 92.403 60.874 C 92.271 60.923 92.172 61.039 92.172 61.154 C 92.172 61.385 90.984 63.447 90.753 63.595 C 90.671 63.644 90.638 63.727 90.654 63.76 C 90.769 63.908 86.926 70.474 86.778 70.391 C 86.696 70.325 86.679 70.375 86.745 70.49 C 86.827 70.605 86.696 70.919 86.448 71.249 C 86.217 71.546 86.019 71.859 86.019 71.925 C 86.019 72.156 84.65 74.383 84.419 74.515 C 84.304 74.597 84.238 74.713 84.287 74.812 C 84.353 74.894 84.023 75.571 83.578 76.33 C 83.116 77.072 82.506 78.128 82.209 78.672 C 81.912 79.216 81.483 79.959 81.252 80.322 C 81.021 80.685 80.823 81.015 80.823 81.064 C 80.79 81.377 79.998 82.516 79.866 82.433 C 79.767 82.384 79.751 82.417 79.8 82.499 C 79.866 82.598 79.338 83.67 78.645 84.874 C 77.952 86.095 77.127 87.546 76.831 88.107 C 76.518 88.684 76.188 89.146 76.105 89.146 C 76.006 89.146 75.973 89.212 76.023 89.294 C 76.072 89.376 75.974 89.624 75.792 89.855 C 75.611 90.086 75.462 90.317 75.462 90.366 C 75.462 90.432 75.231 90.877 74.951 91.389 C 74.555 92.082 74.39 92.247 74.275 92.082 C 74.16 91.934 74.143 91.95 74.209 92.164 C 74.308 92.477 73.863 93.434 73.615 93.434 C 73.549 93.434 73.5 93.483 73.516 93.549 C 73.582 93.862 73.137 94.605 72.955 94.489 C 72.84 94.423 72.823 94.44 72.889 94.571 C 73.004 94.736 71.982 96.682 70.778 98.629 C 70.481 99.074 70.168 99.668 70.052 99.916 C 69.937 100.163 69.772 100.328 69.689 100.279 C 69.607 100.23 69.557 100.279 69.607 100.394 C 69.706 100.658 68.287 103.033 68.139 102.868 C 68.073 102.802 68.04 102.835 68.057 102.917 C 68.139 103.23 67.859 103.824 67.678 103.725 C 67.563 103.659 67.546 103.692 67.612 103.791 C 67.678 103.89 67.15 104.962 66.457 106.166 C 65.748 107.37 65.104 108.508 65.005 108.69 C 63.834 110.851 62.498 113.012 62.366 112.946 C 62.284 112.897 62.267 112.93 62.333 113.028 C 62.481 113.259 60.436 116.855 60.222 116.739 C 60.14 116.673 60.123 116.723 60.173 116.805 C 60.239 116.904 60.025 117.415 59.711 117.943 C 59.398 118.471 59.134 118.966 59.134 119.048 C 59.134 119.114 59.068 119.147 59.002 119.097 C 58.92 119.048 58.854 119.113 58.854 119.229 C 58.854 119.559 55.456 125.415 55.307 125.332 C 55.241 125.283 55.225 125.381 55.291 125.53 C 55.373 125.744 55.34 125.777 55.176 125.678 C 55.028 125.596 54.995 125.612 55.077 125.727 C 55.176 125.908 54.467 127.212 54.153 127.426 C 54.071 127.475 54.005 127.591 54.005 127.673 C 54.021 127.755 53.906 127.953 53.774 128.102 C 53.642 128.267 53.576 128.399 53.609 128.399 C 53.658 128.399 53.576 128.63 53.444 128.894 C 53.296 129.191 53.098 129.356 52.999 129.29 C 52.884 129.224 52.867 129.241 52.933 129.372 C 53.098 129.619 52.075 131.401 51.844 131.269 C 51.729 131.203 51.712 131.236 51.778 131.335 C 51.844 131.434 51.646 131.945 51.366 132.473 C 49.585 135.673 48.611 137.273 48.496 137.174 C 48.414 137.108 48.414 137.141 48.463 137.24 C 48.529 137.339 48.364 137.751 48.117 138.147 C 47.87 138.543 47.573 139.071 47.441 139.318 C 47.309 139.565 47.128 139.73 47.045 139.664 C 46.946 139.615 46.93 139.648 46.996 139.763 C 47.062 139.862 46.864 140.373 46.551 140.901 C 46.238 141.412 45.792 142.171 45.578 142.584 C 45.347 142.996 44.605 144.283 43.928 145.471 C 42.476 147.962 39.425 153.273 37.973 155.814 C 37.412 156.771 36.884 157.53 36.802 157.48 C 36.72 157.431 36.703 157.464 36.769 157.579 C 36.901 157.793 35.994 159.476 35.532 159.872 C 35.367 160.02 35.268 160.185 35.318 160.268 C 35.367 160.334 35.236 160.647 35.021 160.944 C 34.807 161.224 34.642 161.505 34.625 161.554 C 34.592 161.834 34.147 162.544 34.015 162.544 C 33.916 162.544 33.9 162.593 33.949 162.643 C 34.015 162.709 33.916 162.956 33.735 163.204 C 33.554 163.451 33.339 163.847 33.24 164.095 C 33.141 164.375 33.009 164.491 32.877 164.425 C 32.762 164.359 32.745 164.376 32.811 164.491 C 32.877 164.59 32.564 165.283 32.135 166.025 C 31.211 167.625 31.327 167.823 30.7 163.518 C 28.721 150.008 29.611 136.482 33.323 123.533 C 33.818 121.784 34.709 119.046 35.006 118.337 C 35.138 118.007 35.171 117.892 35.204 117.578 C 35.204 117.43 35.303 117.38 35.418 117.446 C 35.517 117.512 35.55 117.495 35.484 117.38 C 35.336 117.133 37.035 112.712 37.249 112.844 C 37.348 112.893 37.364 112.86 37.298 112.762 C 37.232 112.663 37.314 112.333 37.479 112.036 C 37.627 111.739 37.776 111.409 37.792 111.327 C 37.891 110.766 39.079 108.457 39.227 108.556 C 39.326 108.605 39.342 108.572 39.276 108.457 C 39.161 108.292 40.183 106.131 41.288 104.152 C 42.756 101.513 44.191 99.22 44.307 99.302 C 44.389 99.351 44.406 99.286 44.356 99.154 C 44.307 99.022 44.389 98.824 44.537 98.709 C 44.669 98.594 44.784 98.429 44.784 98.346 C 44.784 98.247 44.998 97.901 45.279 97.554 C 45.559 97.208 45.774 96.878 45.774 96.812 C 45.774 96.746 46.12 96.202 46.566 95.608 C 46.995 94.998 47.457 94.354 47.589 94.156 C 47.721 93.958 48.084 93.48 48.381 93.084 C 48.678 92.688 49.057 92.177 49.206 91.962 C 49.453 91.632 50.74 90.016 51.334 89.306 C 53.891 86.271 55.326 84.687 58.147 81.883 C 61.776 78.254 65.454 75.037 65.768 75.219 C 65.867 75.285 65.9 75.268 65.85 75.17 C 65.702 74.939 67.335 73.586 67.582 73.735 C 67.681 73.801 67.714 73.784 67.648 73.669 C 67.516 73.455 69.66 71.937 69.891 72.085 C 69.99 72.151 70.023 72.118 69.973 72.019 C 69.907 71.937 70.22 71.59 70.666 71.26 C 71.491 70.65 71.788 70.518 71.573 70.864 C 71.507 70.979 71.524 70.996 71.655 70.93 C 71.754 70.864 71.803 70.749 71.754 70.666 C 71.672 70.551 72.777 69.775 75.63 67.944 C 77.016 67.053 78.335 66.327 78.55 66.327 C 78.665 66.327 78.764 66.261 78.764 66.195 C 78.764 66.129 79.193 65.832 79.721 65.535 C 80.76 64.958 84.983 62.747 85.115 62.731 C 85.148 62.731 86.055 62.319 87.127 61.807 C 88.199 61.312 89.238 60.883 89.436 60.867 C 89.634 60.867 89.749 60.818 89.716 60.785 C 89.65 60.719 92.85 59.333 93.164 59.3 C 93.23 59.284 93.279 59.333 93.279 59.399 Z M 157.411 224.062 C 176.397 224.144 191.952 224.227 192.002 224.26 C 192.134 224.408 188.95 226.734 188.752 226.619 C 188.653 226.553 188.62 226.57 188.67 226.685 C 188.736 226.784 188.34 227.18 187.763 227.592 C 185.602 229.126 184.414 229.901 184.2 229.901 C 184.101 229.901 184.035 229.934 184.085 229.983 C 184.184 230.082 181.495 231.83 181.248 231.83 C 181.133 231.83 181.034 231.912 181.034 232.011 C 181.034 232.11 180.919 232.143 180.77 232.093 C 180.638 232.044 180.556 232.06 180.605 232.142 C 180.687 232.257 180.358 232.505 180.044 232.554 C 179.995 232.57 179.714 232.735 179.434 232.95 C 179.137 233.164 178.824 233.28 178.725 233.23 C 178.626 233.181 178.511 233.246 178.461 233.378 C 178.329 233.708 174.304 235.836 174.073 235.687 C 173.974 235.621 173.941 235.638 173.991 235.736 C 174.04 235.818 173.595 236.132 172.985 236.412 C 169.504 238.029 167.756 238.754 167.558 238.688 C 167.426 238.639 167.36 238.655 167.41 238.737 C 167.509 238.885 163.896 240.304 160.663 241.376 C 149.446 245.104 136.613 246.885 124.951 246.341 C 117.149 245.995 110.913 245.087 103.886 243.306 C 99.416 242.168 93.708 240.32 93.873 240.056 C 93.922 239.974 93.857 239.957 93.725 240.007 C 93.511 240.089 92.191 239.595 89.288 238.374 C 88.76 238.16 88.397 237.912 88.463 237.846 C 88.529 237.764 88.496 237.764 88.397 237.813 C 88.298 237.879 88.001 237.813 87.737 237.698 C 87.473 237.566 86.483 237.104 85.527 236.675 C 83.564 235.801 82.046 234.976 81.865 234.729 C 81.799 234.63 81.733 234.614 81.733 234.68 C 81.733 234.96 74.805 230.936 74.805 230.655 C 74.805 230.573 74.756 230.523 74.69 230.54 C 74.426 230.606 73.816 230.161 73.915 229.979 C 73.997 229.864 73.948 229.847 73.833 229.93 C 73.718 229.996 73.47 229.914 73.272 229.716 C 73.074 229.518 72.843 229.353 72.744 229.337 C 72.447 229.271 70.847 228.149 70.847 228.017 C 70.847 227.935 70.798 227.885 70.715 227.902 C 70.649 227.935 70.055 227.539 69.379 227.044 C 68.719 226.549 68.01 226.021 67.812 225.889 C 66.773 225.163 66.245 224.685 66.344 224.52 C 66.393 224.438 66.36 224.405 66.262 224.471 C 66.163 224.52 65.883 224.389 65.619 224.141 L 65.157 223.712 L 94.024 223.827 C 109.909 223.876 138.43 223.992 157.416 224.058 Z"
        fill="#ffffff"
        fill-opacity="0.5"/>
    <path
        id="path_3"
        d="M 108.832 71.695 C 108.766 71.81 96.873 92.578 82.439 117.849 L 56.162 163.789 L 63.057 163.888 C 66.834 163.954 75.396 164.036 82.06 164.102 L 94.184 164.201 L 98.539 156.481 C 100.947 152.242 103.801 147.178 104.906 145.231 C 106.028 143.285 108.37 139.128 110.135 135.994 C 111.916 132.86 115.447 126.592 118.02 122.055 C 120.593 117.519 123.628 112.141 124.783 110.096 C 140.668 82.004 145.534 73.41 145.996 72.602 C 146.309 72.074 146.557 71.612 146.557 71.563 C 146.557 71.53 138.095 71.497 127.769 71.497 C 112.907 71.497 108.931 71.546 108.832 71.695 Z"
        fill="#ffffff"
        fill-opacity="0.5"/>
    <path
        id="path_4"
        d="M 142.895 88.108 C 139.398 94.261 135.109 101.799 133.361 104.851 L 130.194 110.41 L 135.473 119.779 C 138.376 124.926 143.622 134.262 147.135 140.53 C 150.649 146.782 154.063 152.869 154.723 154.056 C 155.399 155.227 156.851 157.833 157.973 159.829 L 160.018 163.458 L 179.285 163.507 C 196.077 163.54 198.535 163.507 198.469 163.309 C 198.387 163.095 195.401 157.833 182.633 135.333 C 180.917 132.298 178.74 128.471 177.816 126.838 C 176.892 125.205 174.88 121.675 173.362 119.003 C 171.844 116.331 169.502 112.207 168.166 109.848 C 166.83 107.489 162.887 100.545 159.407 94.425 C 155.943 88.305 152.297 81.889 151.324 80.157 C 150.351 78.441 149.493 77.006 149.411 76.99 C 149.329 76.957 146.392 81.972 142.895 88.108 Z"
        fill="#ffffff"
        fill-opacity="0.5"/>
    <path
        id="path_5"
        d="M 52.253 168.275 C 52.385 168.506 67.891 194.734 69.986 198.28 L 72.048 201.761 L 86.663 201.86 C 94.696 201.926 119.621 202.025 142.021 202.074 L 182.765 202.189 L 188.786 191.813 C 192.102 186.106 196.489 178.551 198.551 175.004 L 202.295 168.571 L 179.498 168.472 C 136.478 168.274 52.17 168.142 52.253 168.274 Z"
        fill="#ffffff"
        fill-opacity="0.5"/>
    <path
        id="path_6"
        d="M 45.853 141.124 C 45.787 141.223 45.771 141.322 45.82 141.371 C 45.853 141.42 45.935 141.338 45.985 141.19 C 46.1 140.91 46.001 140.86 45.853 141.124 Z"
        fill="#ffffff"
        fill-opacity="0.5"/>
</svg>
